<svg width="60" height="60" viewBox="0 0 60 60" fill="none" xmlns="http://www.w3.org/2000/svg">
    <path d="M20.1547 39C19.5404 39 19.028 38.802 18.6173 38.406C18.2067 38.01 18.0009 37.5154 18 36.9223V23.0777C18 22.4854 18.2058 21.9913 18.6173 21.5953C19.0289 21.1993 19.5409 21.0009 20.1533 21H39.8467C40.46 21 40.972 21.1984 41.3827 21.5953C41.7933 21.9921 41.9991 22.4863 42 23.0777V36.9236C42 37.515 41.7942 38.0091 41.3827 38.406C40.9711 38.8029 40.4591 39.0009 39.8467 39H20.1547ZM30 29.9486C30.1111 29.9486 30.2151 29.9323 30.312 29.8997C30.408 29.8671 30.5031 29.8273 30.5973 29.7801L40.236 23.6949C40.3622 23.6211 40.4444 23.5204 40.4827 23.3927C40.5209 23.265 40.5138 23.1377 40.4613 23.0109C40.4276 22.8454 40.3156 22.7254 40.1253 22.6509C39.936 22.5771 39.7524 22.5921 39.5747 22.6959L30 28.7143L20.4267 22.6971C20.2489 22.5926 20.0693 22.5703 19.888 22.6303C19.7067 22.6903 19.5902 22.8086 19.5387 22.9851C19.4871 23.1171 19.4804 23.2513 19.5187 23.3876C19.5569 23.5239 19.6387 23.6267 19.764 23.6961L29.4027 29.7801C29.4969 29.8273 29.592 29.8671 29.688 29.8997C29.7849 29.9314 29.8889 29.9473 30 29.9473" fill="white"/>
</svg>
