<svg width="60" height="60" viewBox="0 0 60 60" fill="none" xmlns="http://www.w3.org/2000/svg">
    <mask id="mask0_2169_4" style="mask-type:luminance" maskUnits="userSpaceOnUse" x="18" y="18" width="24" height="24">
        <path fill-rule="evenodd" clip-rule="evenodd" d="M18.1205 41.3865C18.0978 41.4685 18.097 41.5551 18.1183 41.6375C18.1396 41.7199 18.1821 41.7952 18.2417 41.8558C18.3012 41.9164 18.3756 41.9602 18.4574 41.9827C18.5391 42.0053 18.6254 42.0058 18.7074 41.9841L24.2591 40.5275C26.0205 41.4853 27.992 41.9872 29.9952 41.9878H30C36.6109 41.9878 42 36.609 42 29.9963C42.004 28.4194 41.6957 26.8575 41.0928 25.4013C40.4899 23.9452 39.6046 22.6239 38.4884 21.5145C37.3741 20.3959 36.0505 19.5096 34.5937 18.9065C33.1369 18.3033 31.5758 17.9953 30 18.0001C23.389 18.0001 18 23.3788 18 29.9903C18 32.0941 18.5519 34.1604 19.6027 35.9836L18.1205 41.3865ZM26.1968 24.2547C26.4173 24.2607 26.662 24.2728 26.8945 24.7906C27.0488 25.1354 27.3079 25.7705 27.52 26.2883C27.6851 26.6912 27.82 27.0227 27.8538 27.0904C27.9321 27.2453 27.9791 27.4231 27.8779 27.6324L27.8441 27.7026C27.7622 27.8719 27.7043 27.9929 27.567 28.1502L27.3946 28.3559C27.2922 28.4817 27.1898 28.6051 27.103 28.6922C26.9476 28.847 26.7873 29.014 26.9656 29.3237C27.144 29.6334 27.7706 30.652 28.6949 31.4735C29.3709 32.0856 30.1466 32.5766 30.9881 32.9252C31.0725 32.9615 31.1408 32.9922 31.193 33.0172C31.5027 33.172 31.6871 33.1478 31.8654 32.9397C32.045 32.7304 32.6403 32.0336 32.8499 31.7239C33.0524 31.4142 33.2597 31.4626 33.5465 31.569C33.8333 31.6767 35.3589 32.428 35.6686 32.5816L35.8409 32.6663C36.0566 32.7692 36.2024 32.8405 36.2651 32.9446C36.3422 33.0764 36.3422 33.6946 36.0867 34.4229C35.824 35.1488 34.5599 35.8457 33.9875 35.8989L33.8248 35.9182C33.2994 35.9812 32.6342 36.0634 30.2627 35.1258C27.3392 33.9717 25.4099 31.1093 25.0207 30.5298L24.9568 30.4379L24.9508 30.4282C24.7724 30.1899 23.6867 28.7321 23.6867 27.2271C23.6867 25.7875 24.394 25.0374 24.7158 24.6962L24.7724 24.6357C24.8766 24.5176 25.0038 24.4223 25.1463 24.3557C25.2887 24.2891 25.4432 24.2527 25.6003 24.2486C25.8088 24.2486 26.0185 24.2486 26.1968 24.2547Z" fill="white"/>
    </mask>
    <g mask="url(#mask0_2169_4)">
        <path fill-rule="evenodd" clip-rule="evenodd" d="M18.1205 41.3865C18.0978 41.4685 18.097 41.5551 18.1183 41.6375C18.1396 41.7199 18.1821 41.7952 18.2417 41.8558C18.3012 41.9164 18.3756 41.9602 18.4574 41.9827C18.5391 42.0053 18.6254 42.0058 18.7074 41.9841L24.2591 40.5275C26.0205 41.4853 27.992 41.9872 29.9952 41.9878H30C36.6109 41.9878 42 36.609 42 29.9963C42.004 28.4194 41.6957 26.8575 41.0928 25.4013C40.4899 23.9452 39.6046 22.6239 38.4884 21.5145C37.3741 20.3959 36.0505 19.5096 34.5937 18.9065C33.1369 18.3033 31.5758 17.9953 30 18.0001C23.389 18.0001 18 23.3788 18 29.9903C18 32.0941 18.5519 34.1604 19.6027 35.9836L18.1205 41.3865ZM26.1968 24.2547C26.4173 24.2607 26.662 24.2728 26.8945 24.7906C27.0488 25.1354 27.3079 25.7705 27.52 26.2883C27.6851 26.6912 27.82 27.0227 27.8538 27.0904C27.9321 27.2453 27.9791 27.4231 27.8779 27.6324L27.8441 27.7026C27.7622 27.8719 27.7043 27.9929 27.567 28.1502L27.3946 28.3559C27.2922 28.4817 27.1898 28.6051 27.103 28.6922C26.9476 28.847 26.7873 29.014 26.9656 29.3237C27.144 29.6334 27.7706 30.652 28.6949 31.4735C29.3709 32.0856 30.1466 32.5766 30.9881 32.9252C31.0725 32.9615 31.1408 32.9922 31.193 33.0172C31.5027 33.172 31.6871 33.1478 31.8654 32.9397C32.045 32.7304 32.6403 32.0336 32.8499 31.7239C33.0524 31.4142 33.2597 31.4626 33.5465 31.569C33.8333 31.6767 35.3589 32.428 35.6686 32.5816L35.8409 32.6663C36.0566 32.7692 36.2024 32.8405 36.2651 32.9446C36.3422 33.0764 36.3422 33.6946 36.0867 34.4229C35.824 35.1488 34.5599 35.8457 33.9875 35.8989L33.8248 35.9182C33.2994 35.9812 32.6342 36.0634 30.2627 35.1258C27.3392 33.9717 25.4099 31.1093 25.0207 30.5298L24.9568 30.4379L24.9508 30.4282C24.7724 30.1899 23.6867 28.7321 23.6867 27.2271C23.6867 25.7875 24.394 25.0374 24.7158 24.6962L24.7724 24.6357C24.8766 24.5176 25.0038 24.4223 25.1463 24.3557C25.2887 24.2891 25.4432 24.2527 25.6003 24.2486C25.8088 24.2486 26.0185 24.2486 26.1968 24.2547Z" fill="white" stroke="white" stroke-width="2" stroke-linejoin="round"/>
    </g>
</svg>
